<?xml version="1.0" encoding="UTF-8"?>
<svg version="1.1" xmlns="http://www.w3.org/2000/svg" width="512" height="512">
<path d="M0 0 C0.99422974 0.00215515 1.98845947 0.0043103 3.01281738 0.00653076 C17.48109955 0.05686686 31.66189071 0.35398296 45.875 3.3125 C46.85130371 3.51117676 47.82760742 3.70985352 48.83349609 3.91455078 C97.21339984 14.03634541 141.2005519 35.95291013 176.875 70.3125 C177.8640332 71.26068604 177.8640332 71.26068604 178.87304688 72.22802734 C188.36130305 81.37247479 197.1012044 90.66984009 204.875 101.3125 C205.73306152 102.46355017 206.59113451 103.61459177 207.44921875 104.765625 C213.48736829 112.95680614 218.84595521 121.47054105 223.875 130.3125 C224.23948242 130.94430176 224.60396484 131.57610352 224.97949219 132.22705078 C246.4740329 169.78084014 256.35126533 212.44304389 256.1875 255.4375 C256.18476578 256.9278476 256.18476578 256.9278476 256.18197632 258.44830322 C256.13719978 272.942192 255.67610213 287.05386097 252.875 301.3125 C252.71402832 302.20807617 252.55305664 303.10365234 252.38720703 304.02636719 C244.49797508 347.63313051 224.80850867 388.77106217 195.875 422.3125 C195.24078125 423.05757813 194.6065625 423.80265625 193.953125 424.5703125 C182.14198485 438.07529833 169.39139772 450.74668743 154.875 461.3125 C153.72505169 462.16899066 152.57531411 463.02576433 151.42578125 463.8828125 C143.23410474 469.9234414 134.71854922 475.28255071 125.875 480.3125 C125.24319824 480.67698242 124.61139648 481.04146484 123.96044922 481.41699219 C97.93166464 496.31500327 68.51361377 505.96041257 38.875 510.3125 C37.67254639 510.48910156 36.47009277 510.66570312 35.23120117 510.84765625 C23.51493596 512.45161689 11.87584274 512.71324553 0.0625 512.6875 C-0.92433777 512.68662384 -1.91117554 512.68574768 -2.92791748 512.68484497 C-67.88219852 512.49532667 -130.29571624 487.41579016 -177.125 442.3125 C-177.78435547 441.68037598 -178.44371094 441.04825195 -179.12304688 440.39697266 C-188.61130305 431.25252521 -197.3512044 421.95515991 -205.125 411.3125 C-205.98306152 410.16144983 -206.84113451 409.01040823 -207.69921875 407.859375 C-213.73736829 399.66819386 -219.09595521 391.15445895 -224.125 382.3125 C-224.48948242 381.68069824 -224.85396484 381.04889648 -225.22949219 380.39794922 C-240.15973018 354.31285999 -249.63885054 324.97664886 -254.125 295.3125 C-254.38990234 293.62882324 -254.38990234 293.62882324 -254.66015625 291.91113281 C-256.3170586 280.29802257 -256.52373513 268.78070055 -256.5 257.0625 C-256.49945618 256.05048523 -256.49891235 255.03847046 -256.49835205 253.99578857 C-256.4576051 237.46132605 -255.53386907 221.54185136 -252.125 205.3125 C-251.91601074 204.29720215 -251.70702148 203.2819043 -251.49169922 202.23583984 C-242.71380189 160.92383315 -223.71113066 122.2919774 -196.125 90.3125 C-195.49078125 89.56742187 -194.8565625 88.82234375 -194.203125 88.0546875 C-182.39198485 74.54970167 -169.64139772 61.87831257 -155.125 51.3125 C-153.97505169 50.45600934 -152.82531411 49.59923567 -151.67578125 48.7421875 C-143.48410474 42.7015586 -134.96854922 37.34244929 -126.125 32.3125 C-125.49319824 31.94801758 -124.86139648 31.58353516 -124.21044922 31.20800781 C-98.17975097 16.30890142 -68.76448404 6.66904478 -39.125 2.3125 C-37.32675781 2.04651001 -37.32675781 2.04651001 -35.4921875 1.77514648 C-23.66616559 0.14661384 -11.92341476 -0.04652724 0 0 Z M-122.125 177.3125 C-130.6543408 188.60033792 -134.26260578 199.44477157 -134.30200195 213.40429688 C-134.30857315 214.41802368 -134.31514435 215.43175049 -134.32191467 216.47619629 C-134.34160738 219.82788168 -134.35330354 223.17952227 -134.36328125 226.53125 C-134.36735678 227.67989029 -134.3714323 228.82853058 -134.37563133 230.01197815 C-134.39647842 236.09587422 -134.41078408 242.17974784 -134.42016602 248.26367188 C-134.4312063 254.52320971 -134.46558305 260.78238971 -134.50533772 267.04180145 C-134.53158693 271.87537256 -134.5398654 276.70885963 -134.54344749 281.54249573 C-134.54829472 283.84837755 -134.55985494 286.15425609 -134.57848549 288.46006775 C-134.72114781 307.29248217 -133.14224285 323.07731729 -119.86328125 337.66015625 C-109.30119791 347.70006918 -96.15498369 352.4197101 -81.72665405 352.45294189 C-80.64135593 352.45739858 -80.64135593 352.45739858 -79.5341326 352.4619453 C-77.12088771 352.47058467 -74.7076927 352.4721365 -72.29443359 352.47363281 C-70.55934545 352.47826442 -68.82425832 352.48328954 -67.08917236 352.48867798 C-62.38226085 352.50177239 -57.67536359 352.50824135 -52.96843672 352.51268864 C-50.02382308 352.51562462 -47.07921329 352.51973045 -44.13460159 352.52419281 C-34.91031964 352.53786099 -25.68604653 352.54753053 -16.46175516 352.5513947 C-5.83492404 352.55587156 4.79177821 352.57340506 15.41857016 352.6023953 C23.64641411 352.62405726 31.87422191 352.63410142 40.10209405 352.63543582 C45.00969872 352.63648077 49.91718213 352.64232213 54.82475662 352.66025543 C59.44590553 352.67681397 64.06684305 352.67885409 68.68801117 352.67011642 C70.37616673 352.66935015 72.06433402 352.67363414 73.75246048 352.68357468 C91.01273164 352.77918235 106.86854458 349.91476738 119.84375 337.57421875 C129.90517946 326.37120403 134.01040144 313.96130633 134.05200195 299.22070312 C134.05857315 298.20697632 134.06514435 297.19324951 134.07191467 296.14880371 C134.09160738 292.79711832 134.10330354 289.44547773 134.11328125 286.09375 C134.11735678 284.94510971 134.1214323 283.79646942 134.12563133 282.61302185 C134.14647842 276.52912578 134.16078408 270.44525216 134.17016602 264.36132812 C134.1812063 258.10179029 134.21558305 251.84261029 134.25533772 245.58319855 C134.28158693 240.74962744 134.2898654 235.91614037 134.29344749 231.08250427 C134.29829472 228.77662245 134.30985494 226.47074391 134.32848549 224.16493225 C134.47114781 205.33251783 132.89224285 189.54768271 119.61328125 174.96484375 C109.05119791 164.92493082 95.90498369 160.2052899 81.47665405 160.17205811 C80.39135593 160.16760142 80.39135593 160.16760142 79.2841326 160.1630547 C76.87088771 160.15441533 74.4576927 160.1528635 72.04443359 160.15136719 C70.30934545 160.14673558 68.57425832 160.14171046 66.83917236 160.13632202 C62.13226085 160.12322761 57.42536359 160.11675865 52.71843672 160.11231136 C49.77382308 160.10937538 46.82921329 160.10526955 43.88460159 160.10080719 C34.66031964 160.08713901 25.43604653 160.07746947 16.21175516 160.0736053 C5.58492404 160.06912844 -5.04177821 160.05159494 -15.66857016 160.0226047 C-23.89641411 160.00094274 -32.12422191 159.99089858 -40.35209405 159.98956418 C-45.25969872 159.98851923 -50.16718213 159.98267787 -55.07475662 159.96474457 C-59.69590553 159.94818603 -64.31684305 159.94614591 -68.93801117 159.95488358 C-70.62616673 159.95564985 -72.31433402 159.95136586 -74.00246048 159.94142532 C-92.19874736 159.8406329 -109.40171667 163.14561336 -122.125 177.3125 Z " fill="#000000" transform="translate(256.125,-0.3125)"/>
<path d="M0 0 C13.48774081 6.7438704 13.48774081 6.7438704 18.1640625 9.55859375 C19.21110352 10.18475586 20.25814453 10.81091797 21.33691406 11.45605469 C22.42198242 12.10993164 23.50705078 12.76380859 24.625 13.4375 C26.98541685 14.85027867 29.34802014 16.25937711 31.7109375 17.66796875 C32.30890137 18.02480743 32.90686523 18.38164612 33.52294922 18.7492981 C40.06257957 22.64541843 46.65246392 26.45300261 53.25 30.25 C54.32588379 30.86931396 55.40176758 31.48862793 56.51025391 32.12670898 C61.66881173 35.092695 66.83177228 38.05089831 72 41 C72 41.66 72 42.32 72 43 C71.33806641 43.3810791 70.67613281 43.7621582 69.99414062 44.15478516 C66.82902985 45.97750122 63.66434625 47.80095711 60.5 49.625 C59.91610504 49.96157623 59.33221008 50.29815247 58.73062134 50.64492798 C50.36784694 55.4668581 42.0208643 60.31486255 33.6875 65.1875 C25.82889445 69.77869329 17.9577505 74.34707079 10.0625 78.875 C8.71128052 79.65266724 8.71128052 79.65266724 7.33276367 80.44604492 C6.1026355 81.1495105 6.1026355 81.1495105 4.84765625 81.8671875 C4.12586182 82.28081543 3.40406738 82.69444336 2.66040039 83.12060547 C1 84 1 84 0 84 C0 56.28 0 28.56 0 0 Z " fill="#000000" transform="translate(220,214)"/>
</svg>
